<svg xmlns="http://www.w3.org/2000/svg" width="18.207" height="15.076" viewBox="0 0 18.207 15.076">
  <g id="Comment" transform="translate(0.263 0.263)">
    <path id="Path_24" data-name="Path 24" d="M17.69,9.526a6.9,6.9,0,0,1-.246.928,3.538,3.538,0,0,1-3.131,2.324c-.281.028-.564.021-.845.021-2.213,0-4.422,0-6.635,0a.4.4,0,0,0-.315.132c-.464.471-.935.938-1.4,1.406a.536.536,0,0,1-.869,0C3.72,13.809,3.2,13.28,2.667,12.76a.681.681,0,0,0-.256-.159A3.54,3.54,0,0,1,0,9.3C-.016,7.392-.02,5.481,0,3.569a3.6,3.6,0,0,1,2.86-3.5,3.689,3.689,0,0,1,.807-.083q5.174-.005,10.348,0a3.628,3.628,0,0,1,3.595,2.86c.031.139.055.281.083.422Q17.688,6.4,17.69,9.526Zm-13,3.782c.429-.433.855-.845,1.264-1.274a.828.828,0,0,1,.658-.27c2.441.007,4.883,0,7.328,0a2.6,2.6,0,0,0,2.722-2.715c0-1.8,0-3.595,0-5.392a2.586,2.586,0,0,0-2.639-2.635q-5.174-.005-10.351,0A2.584,2.584,0,0,0,1.036,3.649c-.007,1.849,0,3.7,0,5.548a2.562,2.562,0,0,0,1.832,2.469,1.132,1.132,0,0,1,.433.26C3.762,12.372,4.212,12.833,4.686,13.307Z" transform="translate(0)" fill="#9f9f9f" stroke="#9f9f9f" stroke-width="0.5"/>
    <path id="Path_25" data-name="Path 25" d="M149.75,143.383c1.084,0,2.164,0,3.248,0a.514.514,0,0,1,.471.783.5.5,0,0,1-.447.249c-.132,0-.263,0-.4,0h-6.046a1.1,1.1,0,0,1-.239-.017.515.515,0,0,1,.094-1.018c.229-.007.461,0,.693,0C148,143.383,148.874,143.383,149.75,143.383Z" transform="translate(-140.891 -138.425)" fill="#9f9f9f" stroke="#9f9f9f" stroke-width="0.5"/>
    <path id="Path_26" data-name="Path 26" d="M149.714,196.576h3.248a.517.517,0,0,1,.558.471.508.508,0,0,1-.419.551,1.383,1.383,0,0,1-.239.014h-6.289a1.259,1.259,0,0,1-.256-.017.5.5,0,0,1-.4-.561.51.51,0,0,1,.485-.454c.132-.007.263,0,.4,0Z" transform="translate(-140.872 -189.783)" fill="#9f9f9f" stroke="#9f9f9f" stroke-width="0.5"/>
  </g>
</svg>
