<svg id="Group_2977" data-name="Group 2977" xmlns="http://www.w3.org/2000/svg" xmlns:xlink="http://www.w3.org/1999/xlink" width="17.625" height="16.162" viewBox="0 0 17.625 16.162">
  <defs>
    <clipPath id="clip-path">
      <rect id="Rectangle_39" data-name="Rectangle 39" width="17.625" height="16.162" fill="#8b8b8b"/>
    </clipPath>
  </defs>
  <g id="Group_2976" data-name="Group 2976" clip-path="url(#clip-path)">
    <path id="Path_72" data-name="Path 72" d="M99.358,1.584V10.16a.16.16,0,0,0-.025.043,1.822,1.822,0,0,1-1.916,1.549q-5.407,0-10.813,0a2.305,2.305,0,0,1-.411-.026,1.84,1.84,0,0,1-1.531-1.9q0-3.943,0-7.886A1.844,1.844,0,0,1,86.594,0h4.029q3.427,0,6.853,0a1.833,1.833,0,0,1,1.791,1.275c.033.1.06.206.09.309M97.848,7l.037-.015V6.835q0-2.445,0-4.889c0-.36-.114-.474-.473-.474H86.618c-.371,0-.485.114-.485.481q0,3.305,0,6.611v.2c.072-.067.117-.108.16-.15l1.79-1.789a1.293,1.293,0,0,1,1.973,0c.268.267.529.541.805.823l.194-.229q1.251-1.5,2.5-3A1.283,1.283,0,0,1,95.61,4.4c.392.45.777.906,1.166,1.359L97.848,7" transform="translate(-81.733 0)" fill="#8b8b8b"/>
    <path id="Path_73" data-name="Path 73" d="M15.249,159.111l-.292.935q-.185.59-.37,1.181a1.644,1.644,0,0,1-2.047,1.128q-3.785-1.011-7.569-2.027l-3.685-.985a1.666,1.666,0,0,1-1.2-2.162l1.662-5.547a.269.269,0,0,1,.081-.139v.175c0,1.538-.01,3.076,0,4.613a2.735,2.735,0,0,0,1.458,2.5,2.774,2.774,0,0,0,1.406.33q5.156-.006,10.311,0Z" transform="translate(0 -146.256)" fill="#8b8b8b"/>
    <path id="Path_74" data-name="Path 74" d="M149.949,66.705a1.467,1.467,0,1,1,1.465-1.467,1.471,1.471,0,0,1-1.465,1.467" transform="translate(-143.34 -61.566)" fill="#8b8b8b"/>
  </g>
</svg>
