<svg id="Group_28" data-name="Group 28" xmlns="http://www.w3.org/2000/svg" xmlns:xlink="http://www.w3.org/1999/xlink" width="21.318" height="17.748" viewBox="0 0 21.318 17.748">
  <defs>
    <clipPath id="clip-path">
      <rect id="Rectangle_16" data-name="Rectangle 16" width="21.318" height="17.748" fill="#32323e"/>
    </clipPath>
  </defs>
  <g id="Group_27" data-name="Group 27" clip-path="url(#clip-path)">
    <path id="Path_48" data-name="Path 48" d="M0,8.131c.031-.075.059-.151.094-.225a1.129,1.129,0,0,1,.948-.684,2.779,2.779,0,0,1,.312-.008H15.412c-.077-.082-.125-.134-.175-.185Q13.12,4.908,11,2.786A1.118,1.118,0,0,1,10.763,1.3,5.954,5.954,0,0,1,11.874.188a1.066,1.066,0,0,1,1.33.1c.053.044.1.092.153.141Q17.125,4.2,20.893,7.971a1.177,1.177,0,0,1,.253,1.509,1.65,1.65,0,0,1-.25.3q-3.766,3.77-7.536,7.537a1.181,1.181,0,0,1-1.814.005q-.274-.271-.545-.544A1.162,1.162,0,0,1,11,15q2.135-2.133,4.275-4.262c.052-.052.1-.107.185-.195H1.5c-.923,0-1.161-.158-1.5-1Z" transform="translate(0 0)" fill="#32323e"/>
  </g>
</svg>
