<svg xmlns="http://www.w3.org/2000/svg" width="24" height="24" viewBox="0 0 24 24">
  <g id="Group_50" data-name="Group 50" transform="translate(-1256 -90)">
    <circle id="Ellipse_16" data-name="Ellipse 16" cx="12" cy="12" r="12" transform="translate(1256 90)" fill="#fff"/>
    <g id="Edit" transform="translate(1262 96)">
      <path id="Path_49" data-name="Path 49" d="M.207,92.233c-.176-.112-.2-.174-.149-.382q.326-1.311.657-2.624a.4.4,0,0,1,.105-.185Q3.854,86,6.9,82.957c.023-.023.048-.043.064-.057l2.423,2.423a.551.551,0,0,0-.094.062Q6.271,88.4,3.253,91.416a.551.551,0,0,1-.24.137q-1.3.333-2.613.657a.457.457,0,0,0-.059.023Z" transform="translate(-0.034 -81.002)" fill="#8b8b8b"/>
      <path id="Path_50" data-name="Path 50" d="M338.078,2.018a1.049,1.049,0,0,1-.048.176,1.747,1.747,0,0,1-.238.437c-.293.316-.613.606-.915.9L334.5,1.155c.3-.3.579-.627.9-.915a1.211,1.211,0,0,1,1.563.011c.291.261.558.547.831.828a1.279,1.279,0,0,1,.286.629Z" transform="translate(-326.847 0.04)" fill="#8b8b8b"/>
    </g>
  </g>
</svg>
