<svg id="Group_58" data-name="Group 58" xmlns="http://www.w3.org/2000/svg" xmlns:xlink="http://www.w3.org/1999/xlink" width="15.279" height="15.305" viewBox="0 0 15.279 15.305">
  <defs>
    <clipPath id="clip-path">
      <rect id="Rectangle_8" data-name="Rectangle 8" width="15.279" height="15.305" fill="#039ce0"/>
    </clipPath>
  </defs>
  <g id="Group_10" data-name="Group 10" clip-path="url(#clip-path)">
    <path id="Path_24" data-name="Path 24" d="M5.822,15.305H3.077c-.013-.007-.025-.02-.038-.021a1.672,1.672,0,0,1-1.4-1.721c.02-1.439.005-2.879.005-4.319V9.059c-.1,0-.179,0-.258,0a1.369,1.369,0,0,1-1.19-.7A1.4,1.4,0,0,1,.463,6.609Q3.41,3.655,6.356.7A2.139,2.139,0,0,1,7.433,0h.418A2.113,2.113,0,0,1,8.917.69Q11.751,3.543,14.6,6.383a2.043,2.043,0,0,1,.68,1.09v.359a.431.431,0,0,0-.026.068A1.4,1.4,0,0,1,13.865,9.06H13.64v.2c0,1.479,0,2.957,0,4.436a1.629,1.629,0,0,1-1.147,1.53c-.094.029-.189.052-.284.078H9.462a.53.53,0,0,1-.356-.57c.007-1.14,0-2.279,0-3.419A.755.755,0,0,0,8.29,10.5c-.422,0-.844,0-1.266,0a.761.761,0,0,0-.849.845c0,1.13,0,2.259,0,3.389a.531.531,0,0,1-.355.571" transform="translate(-0.001)" fill="#039ce0"/>
  </g>
</svg>
