<svg xmlns="http://www.w3.org/2000/svg" width="17.636" height="14.713" viewBox="0 0 17.636 14.713">
  <path id="heart" d="M0,4.44c.069-.347.139-.729.243-1.075A4.882,4.882,0,0,1,5.412.034,4.84,4.84,0,0,1,8.4,1.457a5.335,5.335,0,0,1,.416.451c.173-.173.312-.347.451-.486A4.907,4.907,0,0,1,16.652,7.84a10.423,10.423,0,0,1-1.8,1.908c-1.735,1.6-3.539,3.122-5.343,4.614a.976.976,0,0,1-.729.347,1.165,1.165,0,0,1-.486-.173C6.036,12.7,3.816,10.858,1.735,8.811A6.26,6.26,0,0,1,.208,6.244C.139,5.932.069,5.62,0,5.273ZM8.812,12.9c.035-.035.1-.069.139-.1,1.249-1.041,2.5-2.082,3.712-3.192q1.249-1.093,2.394-2.29a3.459,3.459,0,0,0,.9-3.33,3.339,3.339,0,0,0-5.516-1.561c-.347.347-.659.694-1.006,1.041a.824.824,0,0,1-1.249,0c-.312-.312-.624-.659-.937-.937a3.283,3.283,0,0,0-3.365-.8A3.335,3.335,0,0,0,1.977,6.522,5.879,5.879,0,0,0,3.226,8.048L7.7,12C8.048,12.315,8.43,12.593,8.812,12.9Z" transform="translate(0 0.001)" fill="#9f9f9f"/>
</svg>
