<svg xmlns="http://www.w3.org/2000/svg" width="16.188" height="14.683" viewBox="0 0 16.188 14.683">
  <path id="heart_1_" data-name="heart (1)" d="M11.468,22.543a4.668,4.668,0,0,0-2.144.514,4.756,4.756,0,0,0-1.231.907,4.756,4.756,0,0,0-1.231-.907,4.668,4.668,0,0,0-2.144-.514A4.724,4.724,0,0,0,0,27.262c0,1.843.973,3.8,2.893,5.818a27.974,27.974,0,0,0,4.929,3.97l.272.176.272-.176a27.972,27.972,0,0,0,4.929-3.97c1.92-2.018,2.893-3.975,2.893-5.818A4.724,4.724,0,0,0,11.468,22.543Z" transform="translate(0 -22.543)" fill="#8b8b8b"/>
</svg>
