<svg xmlns="http://www.w3.org/2000/svg" width="19.333" height="22" viewBox="0 0 19.333 22">
  <g id="notification" transform="translate(0.025)">
    <path id="Path_20" data-name="Path 20" d="M9.935,0a5.176,5.176,0,0,1,.89.4,1.78,1.78,0,0,1,.781,1.481c.011.321,0,.643,0,.97.264.1.528.189.775.31a6.58,6.58,0,0,1,3.949,6.118c.029.936-.011,1.877.046,2.812a9.688,9.688,0,0,0,1.877,5.148c.258.362.557.689.849,1.027a.658.658,0,0,1-.505,1.159c-1.831-.006-3.668,0-5.5,0h-.247a3.243,3.243,0,0,1-6.348,0H6.256c-1.831,0-3.668.006-5.5-.006a.93.93,0,0,1-.517-.161.64.64,0,0,1-.023-.964,18.9,18.9,0,0,0,1.251-1.63A9.848,9.848,0,0,0,3.013,11.25c.006-.89-.04-1.779.046-2.663A6.43,6.43,0,0,1,6.32,3.5a14.748,14.748,0,0,1,1.418-.677V2.032A1.924,1.924,0,0,1,9.333.04a.484.484,0,0,0,.08-.034C9.591,0,9.763,0,9.935,0ZM17.3,18.12c-.069-.1-.109-.161-.155-.224a11.033,11.033,0,0,1-2.055-5.786c-.057-.918-.023-1.848-.046-2.766a7.667,7.667,0,0,0-.08-1.027,5.366,5.366,0,0,0-10.653.959c-.006.947.017,1.894-.04,2.835a11.079,11.079,0,0,1-2.043,5.768l-.166.241ZM7.881,19.429a1.906,1.906,0,0,0,1.86,1.28,1.866,1.866,0,0,0,1.733-1.28Zm2.434-16.84a6.663,6.663,0,0,0-.006-.758.64.64,0,0,0-1.263-.011,6.99,6.99,0,0,0-.006.775C9.476,2.589,9.884,2.589,10.314,2.589Z" transform="translate(-0.035)" fill="#fff"/>
    <path id="Path_21" data-name="Path 21" d="M-.024,45.421a9.617,9.617,0,0,1,2.789-6.549.656.656,0,0,1,.941-.052.649.649,0,0,1-.011.941A8.521,8.521,0,0,0,2.209,41.8a8.3,8.3,0,0,0-.941,3.771,1,1,0,0,1-.04.293.64.64,0,0,1-.677.442.659.659,0,0,1-.568-.585A2.59,2.59,0,0,1-.024,45.421Z" transform="translate(0 -36.427)" fill="#fff"/>
    <path id="Path_22" data-name="Path 22" d="M272.328,45.381v.138a.644.644,0,1,1-1.286.017,8.891,8.891,0,0,0-.316-2.267,8.338,8.338,0,0,0-2.049-3.547,1,1,0,0,1-.247-.39.6.6,0,0,1,.3-.712.648.648,0,0,1,.8.138,9.6,9.6,0,0,1,2.8,6.624Z" transform="translate(-253.021 -36.324)" fill="#fff"/>
  </g>
</svg>
