<svg xmlns="http://www.w3.org/2000/svg" width="19.101" height="18.834" viewBox="0 0 19.101 18.834">
  <path id="Search" d="M19.078,17.514a1.678,1.678,0,0,1-.5.947,1.549,1.549,0,0,1-2.216-.121l-4.089-4.089a.505.505,0,0,1-.1-.161c-.5.262-.967.544-1.43.745a7.509,7.509,0,0,1-6.245-.081A7.58,7.58,0,0,1,.949,11.471,7.5,7.5,0,0,1,0,7.16,7.508,7.508,0,0,1,2.218,2.306,7.516,7.516,0,0,1,6.79.09a7.544,7.544,0,0,1,4.532.866,7.756,7.756,0,0,1,4.069,6.507,7.394,7.394,0,0,1-1.068,4.21.259.259,0,0,0,.04.363C15.694,13.344,17,14.674,18.333,16a2.306,2.306,0,0,1,.725,1.168A1.737,1.737,0,0,1,19.078,17.514Zm-6.164-9.77A5.217,5.217,0,1,0,7.7,12.962,5.244,5.244,0,0,0,12.914,7.744Z" transform="translate(0.023 -0.037)" fill="#afafaf"/>
</svg>
