<svg xmlns="http://www.w3.org/2000/svg" width="16.311" height="16.312" viewBox="0 0 16.311 16.312">
  <path id="settings" d="M15.417,6.385l-1.278-.162a6.423,6.423,0,0,0-.387-.934l.789-1.016a1.01,1.01,0,0,0-.083-1.345l-1.07-1.07a1.013,1.013,0,0,0-1.349-.086l-1.015.789a6.4,6.4,0,0,0-.935-.387L9.927.9A1.018,1.018,0,0,0,8.917,0H7.395a1.018,1.018,0,0,0-1.01.9L6.222,2.173a6.326,6.326,0,0,0-.935.387L4.272,1.77a1.011,1.011,0,0,0-1.345.083l-1.07,1.07a1.013,1.013,0,0,0-.086,1.35L2.56,5.288a6.348,6.348,0,0,0-.387.934L.9,6.385A1.018,1.018,0,0,0,0,7.395V8.917a1.018,1.018,0,0,0,.9,1.01l1.278.162a6.423,6.423,0,0,0,.387.934L1.77,12.039a1.01,1.01,0,0,0,.083,1.345l1.07,1.07a1.014,1.014,0,0,0,1.349.086l1.015-.789a6.275,6.275,0,0,0,.934.387l.162,1.275a1.018,1.018,0,0,0,1.01.9H8.917a1.018,1.018,0,0,0,1.01-.9l.162-1.278a6.423,6.423,0,0,0,.934-.387l1.016.789a1.01,1.01,0,0,0,1.345-.083l1.07-1.07a1.012,1.012,0,0,0,.086-1.349l-.789-1.015a6.275,6.275,0,0,0,.387-.934l1.275-.162a1.018,1.018,0,0,0,.9-1.01V7.395a1.017,1.017,0,0,0-.894-1.01ZM8.156,11.554a3.4,3.4,0,1,1,3.4-3.4,3.4,3.4,0,0,1-3.4,3.4Z" transform="translate(0 0)" fill="#8b8b8b"/>
</svg>
