<svg xmlns="http://www.w3.org/2000/svg" width="14.339" height="15.212" viewBox="0 0 14.339 15.212">
  <g id="Share_3" transform="translate(0.259 0.32)">
    <path id="Path_27" data-name="Path 27" d="M10.9,14.642a5.821,5.821,0,0,1-.828-.251,2.55,2.55,0,0,1-1.405-2.976c.007-.032.014-.065.029-.111-.039-.022-.075-.047-.118-.068C7.316,10.591,6.057,9.949,4.8,9.3c-.111-.057-.158-.036-.229.054a2.562,2.562,0,0,1-2.961.778A2.545,2.545,0,0,1,0,7.587,2.445,2.445,0,0,1,1.637,5.353a2.465,2.465,0,0,1,2.757.584c.09.082.143.1.247.032,1.326-.8,2.653-1.6,3.983-2.4.039-.025.079-.05.129-.079A2.543,2.543,0,0,1,8.9,1.324,2.481,2.481,0,0,1,10.234.159a2.577,2.577,0,1,1-1.04,4.08c-.039.022-.079.043-.118.068q-2,1.2-3.986,2.391c-.1.061-.125.111-.082.222a2.373,2.373,0,0,1,.068,1.395.166.166,0,0,0,.1.229c1.251.635,2.5,1.273,3.743,1.911.05.025.1.05.158.075.1-.111.2-.222.3-.323a2.477,2.477,0,0,1,2.56-.588,2.458,2.458,0,0,1,1.746,1.993,2.565,2.565,0,0,1-2.165,3,.6.6,0,0,0-.108.029Zm.258-13.8a1.717,1.717,0,1,0,1.717,1.721A1.723,1.723,0,0,0,11.159.844Zm-8.59,5.18A1.717,1.717,0,1,0,4.286,7.745,1.72,1.72,0,0,0,2.569,6.024Zm6.872,6.044a1.719,1.719,0,1,0,1.721-1.717A1.726,1.726,0,0,0,9.442,12.068Z" transform="translate(0 0)" fill="#9f9f9f" stroke="#9f9f9f" stroke-width="0.5"/>
  </g>
</svg>
